<svg width="153" height="43" viewBox="0 0 153 43" fill="none" xmlns="http://www.w3.org/2000/svg">
<path d="M39.4667 32.3556C38.237 32.3556 37.1185 32.037 36.1111 31.4C35.1037 30.763 34.2963 29.9185 33.6889 28.8667C33.0963 27.8 32.8 26.6222 32.8 25.3333C32.8 24.0444 33.0963 22.8667 33.6889 21.8C34.2963 20.7333 35.1037 19.8889 36.1111 19.2667C37.1185 18.6296 38.237 18.3111 39.4667 18.3111C40.3259 18.3111 41.1111 18.4667 41.8222 18.7778C42.5333 19.0741 43.1407 19.4889 43.6444 20.0222V18.6667H46.9778V32H43.6444V30.6444C43.1407 31.1778 42.5333 31.6 41.8222 31.9111C41.1111 32.2074 40.3259 32.3556 39.4667 32.3556ZM39.9333 28.9556C40.5852 28.9556 41.1778 28.7926 41.7111 28.4667C42.2444 28.1407 42.6667 27.7037 42.9778 27.1556C43.3037 26.6074 43.4667 26 43.4667 25.3333C43.4667 24.6667 43.3037 24.0593 42.9778 23.5111C42.6667 22.963 42.2444 22.5259 41.7111 22.2C41.1778 21.8741 40.5852 21.7111 39.9333 21.7111C39.2815 21.7111 38.6889 21.8741 38.1556 22.2C37.6222 22.5259 37.1926 22.963 36.8667 23.5111C36.5556 24.0593 36.4 24.6667 36.4 25.3333C36.4 26 36.5556 26.6074 36.8667 27.1556C37.1926 27.7037 37.6222 28.1407 38.1556 28.4667C38.6889 28.7926 39.2815 28.9556 39.9333 28.9556ZM49.6486 32V18.6667H53.5153V32H49.6486ZM51.5819 16.7333C51.0042 16.7333 50.5153 16.5333 50.1153 16.1333C49.7153 15.7333 49.5153 15.2444 49.5153 14.6667C49.5153 14.0741 49.7153 13.5852 50.1153 13.2C50.5153 12.8 51.0042 12.6 51.5819 12.6C52.1745 12.6 52.6634 12.8 53.0486 13.2C53.4486 13.5852 53.6486 14.0741 53.6486 14.6667C53.6486 15.2444 53.4486 15.7333 53.0486 16.1333C52.6634 16.5333 52.1745 16.7333 51.5819 16.7333ZM56.1792 32V18.6667H59.6458V20.9556C60.1051 20.1852 60.6829 19.5926 61.3792 19.1778C62.0903 18.7481 62.9199 18.5333 63.8681 18.5333L64.7125 21.9556C64.431 21.8667 64.1125 21.8222 63.7569 21.8222C62.6458 21.8222 61.7495 22.1852 61.0681 22.9111C60.3866 23.6222 60.0458 24.6444 60.0458 25.9778V32H56.1792ZM67.7097 32.4444C66.9394 32.4444 66.1764 32.3259 65.4208 32.0889C64.6801 31.8519 64.0579 31.4815 63.5542 30.9778L64.5986 27.2444C64.8949 27.6889 65.2727 28.0444 65.7319 28.3111C66.1912 28.5778 66.7097 28.7111 67.2875 28.7111C67.9838 28.7111 68.5616 28.4815 69.0208 28.0222C69.4949 27.563 69.7319 26.7926 69.7319 25.7111V12H73.8653V26C73.8653 27.4815 73.5764 28.7037 72.9986 29.6667C72.4208 30.6148 71.6579 31.3185 70.7097 31.7778C69.7764 32.2222 68.7764 32.4444 67.7097 32.4444ZM79.8472 32.4444C79.0769 32.4444 78.3139 32.3259 77.5583 32.0889C76.8176 31.8519 76.1954 31.4815 75.6917 30.9778L76.7361 27.2444C77.0324 27.6889 77.4102 28.0444 77.8694 28.3111C78.3287 28.5778 78.8472 28.7111 79.425 28.7111C80.1213 28.7111 80.6991 28.4815 81.1583 28.0222C81.6324 27.563 81.8694 26.7926 81.8694 25.7111V12H86.0028V26C86.0028 27.4815 85.7139 28.7037 85.1361 29.6667C84.5583 30.6148 83.7954 31.3185 82.8472 31.7778C81.9139 32.2222 80.9139 32.4444 79.8472 32.4444ZM87.1729 32L95.9951 11.2889H96.0396L104.862 32H100.84L99.3507 28.4444H92.5507L91.0618 32H87.1729ZM93.884 25.2444H98.0174L97.1507 23.2C96.9137 22.6519 96.6914 22.1259 96.484 21.6222C96.2914 21.1037 96.1063 20.5037 95.9285 19.8222C95.7655 20.4889 95.5877 21.0815 95.3951 21.6C95.2025 22.1185 94.9877 22.6519 94.7507 23.2L93.884 25.2444ZM106.958 32V12H113.225C114.558 12 115.618 12.2593 116.403 12.7778C117.203 13.2815 117.773 13.8963 118.114 14.6222C118.455 15.3333 118.625 16.0148 118.625 16.6667C118.625 17.2444 118.514 17.7926 118.292 18.3111C118.069 18.8148 117.758 19.2593 117.358 19.6444C118.277 20.2222 119.018 20.9926 119.581 21.9556C120.144 22.9037 120.425 23.963 120.425 25.1333C120.425 26.2741 120.144 27.3704 119.581 28.4222C119.018 29.4741 118.181 30.3333 117.069 31C115.958 31.6667 114.588 32 112.958 32H106.958ZM110.825 28.4H112.558C113.447 28.4 114.158 28.2296 114.692 27.8889C115.24 27.5333 115.632 27.0963 115.869 26.5778C116.121 26.0444 116.247 25.5185 116.247 25C116.247 24.4963 116.129 23.9852 115.892 23.4667C115.655 22.9333 115.262 22.4889 114.714 22.1333C114.181 21.7778 113.462 21.6 112.558 21.6H110.825V28.4ZM110.825 18.8H112.558C113.255 18.8 113.818 18.637 114.247 18.3111C114.677 17.9852 114.892 17.5111 114.892 16.8889C114.892 16.237 114.677 15.7481 114.247 15.4222C113.832 15.0963 113.299 14.9333 112.647 14.9333H110.825V18.8ZM122.648 32V18.6667H126.115V20.1333C126.589 19.5111 127.174 19.037 127.87 18.7111C128.566 18.3852 129.315 18.2222 130.115 18.2222C131.063 18.2222 131.944 18.4519 132.759 18.9111C133.589 19.3556 134.255 20.0148 134.759 20.8889C135.278 21.7481 135.537 22.7926 135.537 24.0222V32H131.67V24.5333C131.67 23.7926 131.448 23.1333 131.003 22.5556C130.559 21.9778 129.922 21.6889 129.092 21.6889C128.426 21.6889 127.826 21.9185 127.292 22.3778C126.774 22.8222 126.515 23.5259 126.515 24.4889V32H122.648ZM145.399 32.3556C144.555 32.3556 143.777 32.2074 143.066 31.9111C142.37 31.6148 141.762 31.2074 141.244 30.6889V32H137.91V10.6667H141.777V19.5111C142.266 19.1259 142.814 18.8296 143.422 18.6222C144.029 18.4148 144.688 18.3111 145.399 18.3111C146.644 18.3111 147.77 18.6296 148.777 19.2667C149.784 19.8889 150.584 20.7333 151.177 21.8C151.784 22.8667 152.088 24.0444 152.088 25.3333C152.088 26.6222 151.784 27.8 151.177 28.8667C150.584 29.9185 149.784 30.763 148.777 31.4C147.77 32.037 146.644 32.3556 145.399 32.3556ZM144.955 28.9556C145.607 28.9556 146.199 28.7926 146.733 28.4667C147.266 28.1407 147.688 27.7037 147.999 27.1556C148.325 26.6074 148.488 26 148.488 25.3333C148.488 24.6667 148.325 24.0593 147.999 23.5111C147.688 22.963 147.266 22.5259 146.733 22.2C146.199 21.8741 145.607 21.7111 144.955 21.7111C144.303 21.7111 143.71 21.8741 143.177 22.2C142.644 22.5259 142.214 22.963 141.888 23.5111C141.577 24.0593 141.422 24.6667 141.422 25.3333C141.422 26 141.577 26.6074 141.888 27.1556C142.214 27.7037 142.644 28.1407 143.177 28.4667C143.71 28.7926 144.303 28.9556 144.955 28.9556Z" fill="#FF395C"/>
<path d="M11.4042 27.9712C11.9201 26.4287 13.7837 25.2409 14.4601 23.6596C15.0245 22.34 15.8167 20.5463 15.4378 19.0581C15.168 17.9985 14.2331 17.0117 13.139 16.7958C12.4982 16.6694 10.5281 15.7079 9.85887 16.1709C8.45423 17.1428 8.73746 20.1791 8.53803 21.7793C8.12679 25.0789 10.2941 28.1674 12.7235 30.3584C14.6727 32.1163 16.1957 33.5696 18.904 33.9071C21.7248 34.2587 22.0266 31.2847 22.6483 29.3108C23.3928 26.9468 23.6509 23.7777 22.7093 21.4616C22.1707 20.1369 21.8285 19.0161 21.0555 17.767C20.1473 16.2998 18.9844 15.098 18.0829 13.6766C16.2247 10.7469 13.3739 6.14749 9.67966 9.00184C8.9193 9.58933 8.38229 10.2454 7.66343 10.8344C6.58479 11.7181 4.88956 13.0528 4.22376 14.2338C3.25123 15.9587 2.56565 17.5602 2.07989 19.5852C0.831946 24.7874 -0.204314 30.9179 5.17839 34.1414C7.39131 35.4666 7.1243 34.0347 8.28327 32.3056C9.10227 31.0837 9.4699 29.5206 10.2338 28.381" stroke="#FF395C" stroke-width="2" stroke-linecap="round"/>
</svg>
